<svg width="24" height="24" viewBox="0 0 24 24" fill="none" xmlns="http://www.w3.org/2000/svg">
<g clip-path="url(#clip0_95_2199)">
<path d="M23.8072 10.141C23.9138 10.141 24.0003 10.2275 24.0003 10.3342V12.3623C24.0003 13.1214 23.9298 13.8636 23.7946 14.5836C22.7485 20.1762 17.8215 24.4027 11.9157 24.362C5.28905 24.3163 -0.0142906 18.962 0.000381321 12.3353C0.0149594 5.7204 5.38205 0.362305 12.0003 0.362305C15.2428 0.362305 18.1848 1.64865 20.3447 3.73815C20.4227 3.81357 20.4248 3.93788 20.348 4.01457L17.4788 6.88384C17.4049 6.95771 17.2855 6.95963 17.2098 6.88759C15.8542 5.59716 14.0199 4.80493 12.0003 4.80493C7.82982 4.80493 4.47146 8.13943 4.44315 12.3099C4.41469 16.5076 7.80919 19.9196 12.0003 19.9196C15.4009 19.9196 18.277 17.6732 19.2255 14.5836H12.1935C12.0868 14.5836 12.0003 14.4971 12.0003 14.3904V10.3341C12.0003 10.2274 12.0868 10.1409 12.1935 10.1409H23.8072V10.141Z" fill="#2196F3"/>
<path d="M23.8066 10.141H22.3579C22.4646 10.141 22.5511 10.2275 22.5511 10.3342V12.3623C22.5511 13.1214 22.4806 13.8636 22.3454 14.5836C21.3473 19.919 16.8171 24.011 11.2747 24.3406C11.4867 24.3532 11.7002 24.3605 11.9152 24.362C17.8209 24.4027 22.7479 20.1762 23.794 14.5836C23.9293 13.8636 23.9998 13.1214 23.9998 12.3623V10.3341C23.9998 10.2275 23.9133 10.141 23.8066 10.141Z" fill="#1E88E5"/>
<path d="M5.13608 9.1974L1.49164 6.56415C3.53623 2.86613 7.47617 0.362305 12.0005 0.362305C15.2429 0.362305 18.1849 1.64865 20.3449 3.73815C20.4229 3.81357 20.4249 3.93788 20.3481 4.01457L17.4789 6.88384C17.4051 6.95757 17.2858 6.95987 17.2103 6.88796C15.8546 5.5973 14.0202 4.80498 12.0005 4.80498C8.95676 4.80498 6.33317 6.60423 5.13608 9.1974Z" fill="#F44336"/>
<path d="M4.08329 8.43719L5.1354 9.19736C6.22806 6.83045 8.50937 5.12579 11.2136 4.84618C11.2339 4.84398 11.2535 4.84131 11.2742 4.83934C11.0362 4.81674 10.795 4.80493 10.5511 4.80493C7.80156 4.80493 5.40531 6.25445 4.08329 8.43719Z" fill="#E53935"/>
<path d="M18.8958 3.73815C18.9738 3.81357 18.9758 3.93788 18.8991 4.01462L16.5702 6.34351C16.7933 6.5132 17.0069 6.6947 17.2096 6.88763C17.2852 6.95968 17.4046 6.95776 17.4785 6.88388L20.3478 4.01462C20.4245 3.93788 20.4224 3.81362 20.3445 3.73815C18.1845 1.64865 15.2426 0.362305 12.0001 0.362305C11.7567 0.362305 11.5153 0.370414 11.2756 0.384711C14.2306 0.560727 16.8979 1.8054 18.8958 3.73815Z" fill="#E53935"/>
<path d="M20.8023 20.5174C18.6109 22.8822 15.4779 24.3623 11.9995 24.3623C7.30146 24.3623 3.23402 21.6624 1.26424 17.7292L4.98494 15.1794C6.10146 17.9576 8.82161 19.9196 11.9995 19.9196C13.9939 19.9196 15.8077 19.1469 17.1579 17.8846L20.8023 20.5174Z" fill="#4CAF50"/>
<path d="M4.98525 15.1796L3.88809 15.9314C5.16239 18.3053 7.66828 19.9197 10.5511 19.9197C10.7949 19.9197 11.0359 19.9077 11.2738 19.8852C8.41214 19.6123 6.01565 17.7436 4.98525 15.1796Z" fill="#43A047"/>
<path d="M12.0001 24.3624C15.4784 24.3624 18.6114 22.8823 20.8028 20.5175L19.9102 19.8727C17.8525 22.4335 14.7658 24.1323 11.2775 24.3405C11.5166 24.3548 11.7574 24.3624 12.0001 24.3624Z" fill="#43A047"/>
<path d="M4.44267 12.3624C4.44267 13.3581 4.63533 14.3089 4.98544 15.1796L1.26469 17.7293C0.455391 16.1145 0 14.2916 0 12.3624C0 10.2594 0.540844 8.28283 1.49119 6.56421L5.13562 9.19746C4.69088 10.1598 4.44267 11.2324 4.44267 12.3624Z" fill="#FFC107"/>
<path d="M3.88838 15.9314L4.98553 15.1796C4.63542 14.3089 4.44277 13.3581 4.44277 12.3623C4.44277 11.2324 4.69097 10.1598 5.13572 9.19743L4.08361 8.43726C3.40041 9.5653 3.00389 10.889 2.99424 12.3099C2.98533 13.6203 3.31003 14.8541 3.88838 15.9314Z" fill="#FFB300"/>
</g>
<defs>
<clipPath id="clip0_95_2199">
<rect width="24" height="24" fill="white" transform="translate(0 0.362305)"/>
</clipPath>
</defs>
</svg>
